<svg xmlns="http://www.w3.org/2000/svg" viewBox="0 0 1280 640" width="1280" height="640" role="img" aria-label="team-brain">
  <defs>
    <linearGradient id="bg" x1="0" y1="0" x2="1" y2="1">
      <stop offset="0" stop-color="#5b5bf0"/>
      <stop offset="1" stop-color="#9b6bff"/>
    </linearGradient>
  </defs>
  <rect width="1280" height="640" fill="url(#bg)"/>
  <!-- glyph -->
  <g transform="translate(120,192) scale(0.5)">
    <g stroke="#ffffff" stroke-width="5" stroke-linecap="round" opacity="0.55" fill="none">
      <path d="M256 128 L160 168 M256 128 L352 168 M160 168 L118 256 M352 168 L394 256 M118 256 L160 344 M394 256 L352 344 M160 344 L256 384 M352 344 L256 384"/>
      <path d="M160 168 L212 256 M118 256 L212 256 M160 344 L212 256"/>
      <path d="M352 168 L300 256 M394 256 L300 256 M352 344 L300 256"/>
      <path d="M256 128 L256 256 M256 384 L256 256"/>
    </g>
    <path d="M212 256 L256 256 L300 256" stroke="#ffd166" stroke-width="8" stroke-linecap="round" fill="none"/>
    <g fill="#ffffff">
      <circle cx="256" cy="128" r="15"/><circle cx="160" cy="168" r="15"/><circle cx="352" cy="168" r="15"/>
      <circle cx="118" cy="256" r="15"/><circle cx="394" cy="256" r="15"/><circle cx="160" cy="344" r="15"/>
      <circle cx="352" cy="344" r="15"/><circle cx="256" cy="384" r="15"/>
      <circle cx="212" cy="256" r="16"/><circle cx="300" cy="256" r="16"/>
    </g>
    <circle cx="256" cy="256" r="22" fill="#ffd166"/>
    <circle cx="256" cy="256" r="9" fill="#5b5bf0"/>
  </g>
  <!-- wordmark -->
  <text x="470" y="318" font-family="-apple-system,BlinkMacSystemFont,'Segoe UI',Roboto,Helvetica,Arial,sans-serif" font-size="120" letter-spacing="-2">
    <tspan fill="#ffffff" fill-opacity="0.72" font-weight="400">team</tspan><tspan fill="#ffffff" font-weight="800">brain</tspan>
  </text>
  <text x="474" y="382" font-family="-apple-system,BlinkMacSystemFont,'Segoe UI',Roboto,Helvetica,Arial,sans-serif" font-size="38" fill="#ffffff" fill-opacity="0.9">
    one brain for testers · developers · POs
  </text>
  <text x="474" y="436" font-family="-apple-system,BlinkMacSystemFont,'Segoe UI',Roboto,Helvetica,Arial,sans-serif" font-size="30" fill="#ffd166" fill-opacity="0.95">
    bridging the product-owner ↔ developer gap
  </text>
</svg>
